<svg xmlns="http://www.w3.org/2000/svg" viewBox="0 0 227.3 226.4">
  <path fill="#48ff3b" d="M97.3 1.2A113.4 113.4 0 0 0 .4 123C27 200.2 87.1 203.8 115 192.7c0 0-41.1-139.5-17.7-191.5z"/>
  <path fill="#ff5252" d="M113.6 0a114 114 0 0 0-27.2 3.3A118.7 118.7 0 0 0 37 66a86.2 86.2 0 0 0-2.3 44l189.1-24.3A113.6 113.6 0 0 0 113.7 0Z"/>
  <path fill="#ffff00" d="m191 133.5-80.2 59.9a84 84 0 0 1-56-7.3C34.1 176 13.6 150.4.4 122.8A113.5 113.5 0 0 0 143 222.6c52.2-28.7 48.2-89 48.2-89z"/>
  <path fill="#00b2ff" d="M115.2 34.3c91 32.3 96 140.6 27.6 188.3l-.3.1a113.3 113.3 0 0 0 80.8-139.2c-17.5-23.5-39.7-42-66.5-48.2a127 127 0 0 0-41.6-1z"/>
  <circle cx="113.7" cy="113.2" r="80.2"/>
  <path fill="#fff" d="M98.8 107.9v41c0 5-1.3 12.5 1.7 16.9 4.9 7 23 6.1 26.4-2 2.1-4.8.9-11.8.9-17v-38c8.6 6.2 14.5 15.5 23 21.7 10.6 7.7 23.4-8.1 20.6-18.6-1.7-6-8.4-10.8-12.6-15l-30-30c-4.5-4.5-9-11-16-11-7 .2-11.5 6.5-16 11l-30 30c-4.2 4.2-10.5 8.8-11.7 15-1.9 8.8 5.2 22 15.7 20.5 4.5-.6 8-4.5 11-7.5 5.7-5.6 11-11.8 17-17z"/>
</svg>
