<svg xmlns="http://www.w3.org/2000/svg" viewBox="0 0 227.3 226.4">
  <circle cx="115.6" cy="114.5" r="95" fill="#f1f1f1"/>
  <path fill="#59ae4b" d="M97.3 1.2A113.7 113.2 0 0 0 0 113.2 113.7 113.2 0 0 0 4 143a132.8 132.8 0 0 0 33.8 33.9c10.5 7.3 22.7 16 35.1 19 14.3 3.6 27.7-.4 42.1-3.1a82.7 82.7 0 0 1-21.2-8.1 123.6 123.6 0 0 1-54-57.7c-17.3-41.3 10-75.4 32-112A92.3 92.3 0 0 1 97.3 1.1Z"/>
  <path fill="#fd5353" d="M113.6 0a113.7 113.2 0 0 0-27.2 3.3c-13.2 8.2-24.7 19-33.9 31.6-7 9.8-11.7 19.6-15.4 31a86.2 86.2 0 0 0-2.3 44c2.3-9 6.7-15 11-22 12.2-19.4 31-38 52-47.7 47-21.5 23.5 18.2 125.7 44.7l.4.7A113.7 113.2 0 0 0 113.7 0a113.7 113.2 0 0 0-.1 0z"/>
  <path fill="#2a2a2a" d="M98.8 107.9v41c0 5-1.3 12.5 1.7 16.9 4.9 7 23 6.1 26.4-2 2.1-4.8.9-11.8.9-17v-38c8.6 6.2 14.5 15.5 23 21.7 10.6 7.7 23.4-8.1 20.6-18.6-1.7-6-8.4-10.8-12.6-15l-30-30c-4.5-4.5-9-11-16-11-7 .2-11.5 6.5-16 11l-30 30c-4.2 4.2-10.5 8.8-11.7 15-1.9 8.8 5.2 22 15.7 20.5 4.5-.6 8-4.5 11-7.5 5.7-5.6 11-11.8 17-17z"/>
  <path fill="#fdc007" d="M195.7 112.1c-1.2.1-2.2 1.3-2.9 3.8-2.4 7.5-5.7 15-10 22a123.3 123.3 0 0 1-72 55.5 84 84 0 0 1-56-7.3C34.1 176 13.6 150.4.4 122.8a113.7 113.2 0 0 0 113.3 103.6 113.7 113.2 0 0 0 90.6-44.8 92.6 92.6 0 0 1 7.7-16c7-14.3-8.7-54-16.3-53.5z"/>
  <path fill="#4b37bc" d="M133.5 33c-6.2 0-12.3.5-18.3 1.3a73 73 0 0 1 22.6 9.7c23.8 14.7 44 36.4 53.6 62.9 16 44.3-12.3 91.4-48.6 115.7l-.3.1a113.7 113.2 0 0 0 84.8-109.5 113.7 113.2 0 0 0-4-29.7 129 129 0 0 0-33.5-33.6A96.1 96.1 0 0 0 133.5 33z"/>
</svg>
